<svg xmlns="http://www.w3.org/2000/svg" width="256" height="256"><path fill-opacity=".016" d="M0 128.004v128.004l128.25-.254 128.25-.254.254-127.75L257.008 0H0v128.004m.485.496c0 70.4.119 99.053.265 63.672.146-35.38.146-92.98 0-128C.604 29.153.485 58.1.485 128.5" fill="#1976D2" fill-rule="evenodd"/><path fill-opacity=".051" d="M132.985 2.75c-1.191 1.513-9.448 13.775-18.348 27.25-8.9 13.475-18.449 27.65-21.22 31.5-20.842 28.957-37.031 59.591-43.505 82.325-3.852 13.523-5.019 33.458-2.617 44.692 3.855 18.029 12.44 33.35 25.573 45.636 16.373 15.317 32.751 21.801 55.132 21.823 24.87.024 46.336-10.178 62.567-29.738 6.509-7.843 14.696-23.916 16.93-33.238 2.502-10.436 2.988-26.063 1.14-36.636-3.774-21.585-9.551-33.83-31.48-66.715-8.381-12.568-17.311-26.968-19.844-32-6.072-12.062-12.467-29.584-15.758-43.172C138.016-.138 138.064 0 136.509 0c-.746 0-2.332 1.237-3.524 2.75" fill="#1976D2" fill-rule="evenodd"/><path fill-opacity=".215" d="M132.409 3.75c-1.414 2.063-9.408 14.1-17.763 26.75-8.356 12.65-17.505 26.209-20.332 30.131-15.206 21.098-32.056 50.598-39.26 68.734-6.408 16.131-8.287 25.626-8.335 42.135-.039 13.527.223 15.879 2.673 23.951 7.22 23.796 22.074 41.753 43.108 52.114 13.205 6.504 19.509 7.905 35.5 7.888 9.893-.01 15.237-.495 20-1.815 39.896-11.053 65.532-49.472 61.014-91.437-2.462-22.87-9.366-38.386-32.567-73.201-8.614-12.925-17.581-27.325-19.928-32-5.649-11.253-12.741-31.1-15.546-43.5-3.4-15.039-4.263-16.021-8.564-9.75M118.5 93.93c-14.906 1.816-27.882 8.395-39.528 20.042-9.293 9.292-14.114 17.217-17.964 29.528-4.261 13.628-3.562 35.208 1.486 45.845 3.103 6.54 14.428 13.188 29.491 17.313 7.582 2.076 27.12 2.877 35.327 1.448 15.135-2.635 29.415-7.962 44.688-16.667l6.5-3.705-6 6.22c-19.544 20.259-47.18 30.051-77 27.283-5.5-.51-10.164-.796-10.364-.635-1.026.826 12.928 8.587 19.646 10.928 10.383 3.619 26.561 4.484 37.657 2.016 19.856-4.418 37.576-18.508 46.589-37.046 3.843-7.905 6.929-18.429 6.957-23.73l.015-2.73-6.75 4.354c-14.922 9.623-34.414 17.591-49.419 20.202-14.619 2.543-32.584 1.565-44.831-2.44-10.001-3.271-23.782-10.516-28-14.721l-2.5-2.492 6 2.408c3.3 1.324 7.005 2.714 8.233 3.09l2.232.683.268-25.293.267-25.293 4.25-2.344L90 125.85v25.95c0 14.273.281 27.356.625 29.075 1.639 8.196 2.367.635 2.61-27.094l.265-30.218 3.951-2.216c2.174-1.219 4.311-1.994 4.75-1.723.44.272.799 15.317.799 33.435 0 21.294.354 32.941 1 32.941.647 0 1-12.128 1-34.385V117.23l2.57-1.684c2.361-1.547 2.768-1.554 5-.092l2.43 1.592v34.477c0 29.98.196 34.477 1.5 34.477s1.5-4.398 1.5-33.583c0-18.471.338-33.422.75-33.224.412.197 2.431 1.215 4.486 2.262l3.736 1.902.264 30.571c.17 19.75.618 30.484 1.264 30.323.63-.157 1.098-10.972 1.265-29.25.146-15.951.507-29.001.802-29.001.295 0 2.31 1.013 4.477 2.25l3.941 2.25.007 22.625c.005 12.444.281 23.99.615 25.659l.607 3.035 5.143-1.803c13.218-4.633 24.529-10.881 38.222-21.115 12.43-9.288 12.128-8.812 9.966-15.704-10.265-32.718-41.669-53.334-75.045-49.267" fill="#1976D2" fill-rule="evenodd"/><path fill-opacity=".529" d="M117.227 27.25C107.261 42.238 95.223 60.125 90.476 67c-23.206 33.61-37.249 62.374-42.071 86.174-1.255 6.193-1.529 11.49-1.151 22.228.575 16.312 2.247 22.809 9.544 37.098 3.781 7.402 6.383 10.796 14.66 19.115 9.032 9.079 11.139 10.639 20.553 15.222 13.617 6.628 21.431 8.457 35.989 8.423 23.416-.056 43.175-8.755 58.989-25.973 18.732-20.395 25.94-48.195 20.023-77.23-3.973-19.493-9.234-30.19-31.012-63.057-8.917-13.457-17.913-27.85-19.991-31.984-4.949-9.845-12.576-30.987-15.104-41.87C138.342 4.116 137.035 0 136.096 0c-.412 0-8.903 12.262-18.869 27.25m-6.997 67.701c-11.849 3.209-22.341 9.294-31.073 18.02-12.02 12.011-17.902 23.467-20.772 40.457-1.774 10.502-1.04 21.635 2.13 32.312 4.069 13.699 26.271 23.515 52.985 23.425 20.44-.068 37.959-5.222 58.5-17.206l5.5-3.209-3 3.221c-10.556 11.335-28.274 21.893-44 26.219-6.924 1.906-10.584 2.207-27.221 2.241l-19.221.04 2.721 2.226c4.215 3.448 16.031 9.036 23.221 10.98 9.953 2.692 26.439 2.452 36-.525 21.247-6.616 38.74-22.555 46.036-41.945 2.6-6.911 5.548-19.957 4.7-20.804-.336-.337-4.457 1.71-9.156 4.549-14.993 9.056-32.073 16.017-47.08 19.188-3.3.697-12.075 1.235-19.5 1.196-15.073-.08-23.441-1.797-35.593-7.303C79.491 185.353 66 177.327 66 176.488c0-.153 3.263.992 7.25 2.544l7.25 2.821.267-25.415.267-25.415 3.943-2.011c2.169-1.107 4.186-2.012 4.483-2.012.297 0 .54 12.777.54 28.393 0 23.436.245 28.487 1.402 28.931.771.296 1.671.269 2-.06.329-.328.598-14.029.598-30.445v-29.848l3.25-1.982c1.787-1.09 3.588-1.983 4-1.985.412-.002.75 14.846.75 32.996 0 32.333.04 33 2 33 1.961 0 2-.667 2-34.521v-34.522l2.47-1.125c5.381-2.452 5.479-1.85 5.767 35.516.243 31.584.393 34.15 2.013 34.462 1.638.315 1.75-1.777 1.75-32.737 0-18.19.21-33.073.466-33.073s1.989.726 3.851 1.614l3.384 1.614.649 13.544c.358 7.449.65 21.348.65 30.886 0 13.946.266 17.342 1.359 17.342 1.101 0 1.452-5.401 1.857-28.524.274-15.688.764-28.79 1.089-29.114.324-.325 2.188.398 4.142 1.605l3.553 2.196v25.419c0 21.248.232 25.418 1.415 25.418 2.568 0 19.986-7.562 27.422-11.905 4.017-2.346 11.823-7.67 17.348-11.832l10.045-7.567-.627-4.577c-.345-2.517-2.69-8.816-5.21-13.997-3.815-7.842-6.031-10.873-13.237-18.105-14.428-14.478-26.791-19.943-46.656-20.624-9.742-.335-13.368-.041-19.27 1.558" fill="#1976D2" fill-rule="evenodd"/></svg>